# xmcd
#
# Track frame offsets:
#	150
#	25390
#	45614
#	66966
#	82183
#	96513
#	120205
#	138364
#	158939
#	183138
#	207608
#	229842
#	245639
#	260776
#	285388
#	307747
#	329202
#
# Disc length: 4652 seconds
#
# Revision: 1
# Processed by: cddbd v1.5.1PL0 Copyright (c) Steve Scherf et al.
# Submitted via: CDex 1.50Beta5
#
DISCID=fd122a11
DTITLE=杏里 - ANRI Pure Best
DYEAR=2001
DGENRE=
TTITLE0=オリビアを聴きながら
TTITLE1=ドルフィン・リング
TTITLE2=SUMMER CANDLES
TTITLE3=嘘ならやさしく
TTITLE4=ALL OF YOU
TTITLE5=砂浜
TTITLE6=LANI〜Heavenly Garden〜
TTITLE7=Groove A・Go・Go
TTITLE8=愛してるなんてとても言えない
TTITLE9=悲しみがとまらない
TTITLE10=ONE-愛はふたりの言葉だから-
TTITLE11=Future For You
TTITLE12=スノーフレイクの街角
TTITLE13=SHARE 瞳の中のヒーロー
TTITLE14=HAPPY ENDでふられたい
TTITLE15=思いきりアメリカン
TTITLE16=CAT’S EYE
EXTD=
EXTT0=
EXTT1=
EXTT2=
EXTT3=
EXTT4=
EXTT5=
EXTT6=
EXTT7=
EXTT8=
EXTT9=
EXTT10=
EXTT11=
EXTT12=
EXTT13=
EXTT14=
EXTT15=
EXTT16=
PLAYORDER=
